<svg width="27" height="34" viewBox="0 0 27 34" xmlns="http://www.w3.org/2000/svg">
    <g fill="#FF5554" fill-rule="nonzero">
        <path d="M25.682 33.696H.834a.355.355 0 0 1-.355-.356v-8.024c0-.98.797-1.776 1.776-1.776h22.006c.98 0 1.777.796 1.777 1.776v8.024a.355.355 0 0 1-.355.355zM1.19 32.985h24.138v-7.669c0-.587-.478-1.065-1.065-1.065H2.256c-.588 0-1.066.478-1.066 1.065v7.669z"/>
        <path d="M23.068 24.25H3.448a.355.355 0 0 1-.355-.355v-8.024c0-.98.796-1.776 1.776-1.776h16.778c.98 0 1.776.796 1.776 1.776v8.024a.355.355 0 0 1-.355.355zm-19.265-.71h18.91v-7.669c0-.587-.479-1.065-1.066-1.065H4.869c-.588 0-1.066.477-1.066 1.065v7.669z"/>
        <path d="M11.497 14.847H7.912a.355.355 0 0 1-.355-.355V7.296c0-.98.797-1.777 1.777-1.777h.741c.98 0 1.777.797 1.777 1.777v7.196a.355.355 0 0 1-.355.356zm-3.23-.71h2.875v-6.84c0-.588-.479-1.067-1.066-1.067h-.742c-.588 0-1.066.479-1.066 1.066v6.84z"/>
        <path d="M9.704 6.23a2.15 2.15 0 0 1-2.147-2.147C7.557 3.007 9.227.7 9.417.44a.37.37 0 0 1 .574 0c.19.26 1.861 2.566 1.861 3.642A2.15 2.15 0 0 1 9.704 6.23zm0-4.965c-.644.936-1.436 2.268-1.436 2.818 0 .792.645 1.436 1.436 1.436.793 0 1.438-.644 1.438-1.436 0-.55-.792-1.882-1.438-2.818zM18.604 14.847h-3.585a.355.355 0 0 1-.355-.355V7.296c0-.98.796-1.777 1.776-1.777h.742c.98 0 1.777.797 1.777 1.777v7.196a.355.355 0 0 1-.355.356zm-3.23-.71h2.874v-6.84c0-.588-.478-1.067-1.066-1.067h-.741c-.588 0-1.066.479-1.066 1.066v6.84z"/>
        <path d="M16.81 6.23a2.15 2.15 0 0 1-2.146-2.147c0-1.076 1.67-3.383 1.86-3.642a.37.37 0 0 1 .573 0c.19.26 1.862 2.566 1.862 3.642A2.15 2.15 0 0 1 16.81 6.23zm0-4.965c-.644.936-1.436 2.268-1.436 2.818 0 .792.645 1.436 1.437 1.436s1.437-.644 1.437-1.436c0-.55-.792-1.882-1.437-2.818zM20.615 20.705a2.828 2.828 0 0 1-2.453-1.39c-.48.829-1.4 1.39-2.452 1.39a2.828 2.828 0 0 1-2.453-1.39c-.48.829-1.4 1.39-2.452 1.39a2.828 2.828 0 0 1-2.453-1.39c-.48.829-1.4 1.39-2.452 1.39-1.549 0-2.808-1.215-2.808-2.709a.355.355 0 1 1 .71 0c0 1.102.941 1.998 2.098 1.998 1.156 0 2.097-.896 2.097-1.998a.355.355 0 1 1 .71 0c0 1.102.941 1.998 2.097 1.998 1.156 0 2.097-.896 2.097-1.998a.355.355 0 1 1 .71 0c0 1.102.941 1.998 2.097 1.998 1.156 0 2.098-.896 2.098-1.998a.355.355 0 1 1 .71 0c0 1.102.941 1.998 2.097 1.998 1.156 0 2.097-.896 2.097-1.998a.355.355 0 1 1 .71 0c.003 1.494-1.257 2.71-2.805 2.71zM22.576 30.15c-1.361 0-2.541-.618-3.106-1.514-.566.896-1.745 1.514-3.106 1.514-1.361 0-2.541-.618-3.107-1.514-.565.896-1.744 1.514-3.105 1.514s-2.541-.618-3.107-1.514c-.565.896-1.744 1.514-3.105 1.514-1.909 0-3.462-1.215-3.462-2.709a.355.355 0 1 1 .71 0c0 1.102 1.235 1.998 2.752 1.998 1.516 0 2.75-.896 2.75-1.998a.355.355 0 1 1 .71 0c0 1.102 1.234 1.998 2.751 1.998s2.75-.896 2.75-1.998a.355.355 0 1 1 .711 0c0 1.102 1.234 1.998 2.751 1.998s2.751-.896 2.751-1.998a.355.355 0 1 1 .71 0c0 1.102 1.234 1.998 2.75 1.998 1.518 0 2.752-.896 2.752-1.998a.355.355 0 1 1 .71 0c.002 1.494-1.552 2.71-3.46 2.71z"/>
    </g>
</svg>
