<svg width="34" height="30" viewBox="0 0 34 30" xmlns="http://www.w3.org/2000/svg">
    <g fill="#FF5554" fill-rule="nonzero">
        <path d="M9.827 7.384h11.631a.616.616 0 0 0 .598-.597.616.616 0 0 0-.598-.597H9.828a.616.616 0 0 0-.598.597c0 .316.246.597.597.597zM9.827 12.76h11.631a.616.616 0 0 0 .598-.597.616.616 0 0 0-.598-.597H9.828a.616.616 0 0 0-.598.597c0 .316.246.598.597.598zM9.827 18.137h10.05a.616.616 0 0 0 .597-.597c0-.317-.28-.598-.632-.598H9.827a.616.616 0 0 0-.597.598c0 .316.245.597.597.597zM15.485 22.283H9.827a.616.616 0 0 0-.597.598c0 .316.28.597.597.597h5.658a.616.616 0 0 0 .597-.597.616.616 0 0 0-.597-.598z"/>
        <path d="m33.3 12.866-1.58-1.581a1.316 1.316 0 0 0-1.828 0l-3.725 3.69V.988A.572.572 0 0 0 25.57.39H.902A.572.572 0 0 0 .304.99v27.69c0 .316.246.597.598.597H25.57a.592.592 0 0 0 .597-.597v-6.853l7.133-7.133a1.254 1.254 0 0 0 0-1.827zM20.3 22.529l1.757 1.722-.035.035-2.355.598.633-2.355zm2.6.914-1.722-1.722 7.766-7.836 1.722 1.722-7.766 7.836zm2.073 4.639H1.5V1.586h23.473V16.17l-5.516 5.517a1.377 1.377 0 0 0-.352.562l-.632 2.32c-.106.421 0 .878.316 1.194.246.247.527.352.843.352.106 0 .211 0 .316-.035l2.32-.632c.21-.07.421-.176.562-.352l2.109-2.108v5.095h.034zm7.485-14.232-.949.949-1.722-1.722.95-.949c.034-.035.034-.035.07-.035.035 0 .07 0 .07.035l1.581 1.581c.035.036.035.106 0 .141z"/>
        <path d="M5.68 4.819a1.95 1.95 0 0 0-1.932 1.933A1.95 1.95 0 0 0 5.68 8.684a1.95 1.95 0 0 0 1.932-1.932 1.927 1.927 0 0 0-1.932-1.933zm0 2.706a.742.742 0 0 1-.737-.738c0-.387.351-.738.738-.738.386 0 .738.351.738.738a.742.742 0 0 1-.738.738zM5.68 10.195a1.95 1.95 0 0 0-1.932 1.933 1.95 1.95 0 0 0 1.933 1.933 1.95 1.95 0 0 0 1.932-1.933c.035-1.054-.843-1.933-1.932-1.933zm0 2.706a.742.742 0 0 1-.737-.738c0-.386.351-.738.738-.738.386 0 .738.352.738.738a.742.742 0 0 1-.738.738zM5.68 15.572a1.95 1.95 0 0 0-1.932 1.932 1.95 1.95 0 0 0 1.933 1.933 1.95 1.95 0 0 0 1.932-1.933 1.927 1.927 0 0 0-1.932-1.932zm0 2.705a.742.742 0 0 1-.737-.738c0-.386.351-.738.738-.738.386 0 .738.352.738.738a.742.742 0 0 1-.738.738zM5.68 20.948a1.95 1.95 0 0 0-1.932 1.933 1.95 1.95 0 0 0 1.933 1.933 1.95 1.95 0 0 0 1.932-1.933c.035-1.054-.843-1.933-1.932-1.933zm0 2.706a.742.742 0 0 1-.737-.738c0-.422.351-.738.738-.738.386 0 .738.351.738.738.035.386-.317.738-.738.738z"/>
    </g>
</svg>
