<svg width="24" height="20" viewBox="0 0 24 20" xmlns="http://www.w3.org/2000/svg">
    <path d="M11.997 0C9.166 0 6.855 2.336 6.855 5.227c0 1.43.524 2.763 1.264 4.021l-7.82 1.117a.344.344 0 0 0-.262.192.372.372 0 0 0 .004.333l4.8 8.935a.338.338 0 0 0 .364.179l18.512-3.932c.12-.022.22-.11.262-.229a.37.37 0 0 0-.059-.351l-5.827-7.506a.336.336 0 0 0-.311-.123l-1.285.179c.391-.897.642-1.834.642-2.815C17.14 2.337 14.83 0 11.997 0zm0 .715c2.47 0 4.457 2.018 4.457 4.512 0 2.849-2.533 5.53-4.457 8.12-1.923-2.59-4.457-5.272-4.457-8.12 0-2.494 1.987-4.512 4.457-4.512zm0 2.144c-1.321 0-2.4 1.125-2.4 2.502 0 1.378 1.079 2.502 2.4 2.502s2.4-1.124 2.4-2.502c0-1.377-1.079-2.502-2.4-2.502zm0 .715c.95 0 1.714.796 1.714 1.787 0 .991-.763 1.787-1.714 1.787-.95 0-1.714-.796-1.714-1.787 0-.991.763-1.787 1.714-1.787zM17.675 8.6l2.239 2.882-4.05.849.247-1.553a.368.368 0 0 0-.075-.279l-.514-.681c.211-.327.418-.658.6-.994l1.553-.224zM8.526 9.907c.79 1.204 1.73 2.34 2.571 3.429l-3.482.726-2.089-3.73 3-.425zm6.588.525.29.38-.269 1.675-1.896.391c.621-.79 1.28-1.598 1.875-2.446zm-10.317.011 2.1 3.764-3.856.804-2.154-4.01 3.91-.558zm15.61 1.664 2.624 3.385-4.95 1.05-2.131-3.496 4.456-.939zm-5.186 1.084 2.132 3.507-5.345 1.128-1.083-1.932a.348.348 0 0 0-.16-.145l-2.41-1.117 3.213-.67c.047.064.104.126.15.19a.34.34 0 0 0 .279.149.34.34 0 0 0 .278-.15c.095-.132.2-.268.3-.402l2.646-.558zm-7.97 1.664c.038.055.09.097.15.123l2.978 1.385.91 1.62-5.977 1.262-1.918-3.586 3.857-.804z" fill="#444BFD" fill-rule="nonzero"/>
</svg>
