<svg width="34" height="32" viewBox="0 0 34 32" xmlns="http://www.w3.org/2000/svg">
    <g fill="#FF5554" fill-rule="nonzero">
        <path d="M9.209 10.477V8.25c.612 0 1.113.501 1.113 1.113h1.113a2.233 2.233 0 0 0-2.226-2.226V6.024H8.096v1.113A2.233 2.233 0 0 0 5.87 9.363a2.233 2.233 0 0 0 2.226 2.227v2.226c-.613 0-1.113-.501-1.113-1.113H5.87a2.233 2.233 0 0 0 2.226 2.226v1.113h1.113v-1.113a2.233 2.233 0 0 0 2.226-2.226 2.233 2.233 0 0 0-2.226-2.226zM6.983 9.363c0-.612.5-1.113 1.113-1.113v2.227c-.613 0-1.113-.501-1.113-1.114zm2.226 4.453V11.59c.612 0 1.113.5 1.113 1.113 0 .612-.501 1.113-1.113 1.113z"/>
        <path d="M31.47 9.363v1.28l1.113.724v2.115l-13.468 6.957L17 19.326l-2.115 1.113-13.468-6.957v-2.115l1.113-.724v-1.28L.304 10.7v20.925h33.392V10.7L31.47 9.363zm1.113 5.343V27.34L20.339 21.05l12.244-6.344zM13.66 21.05 1.417 27.34V14.705l12.244 6.344zM1.417 30.511V28.62L17 20.55l15.583 8.07v1.892H1.417z"/>
        <path d="M4.757 13.982v-9.07h24.486v9.07l1.114-.612V3.798H3.643v9.572zM27.351 14.929H12.548v1.113h12.689zM15.386 2.685 17 1.683l1.614 1.002h2.114L17 .348 13.27 2.685z"/>
    </g>
</svg>
