<svg width="34" height="34" viewBox="0 0 34 34" xmlns="http://www.w3.org/2000/svg">
    <path d="M28.761 5.239A16.633 16.633 0 1 0 5.24 28.76 16.633 16.633 0 1 0 28.76 5.24zm-.439 22.232-.829-.829a.601.601 0 0 0-.85.85l.83.83a15.373 15.373 0 0 1-9.871 4.094v-1.18a.601.601 0 0 0-1.203 0v1.18a15.375 15.375 0 0 1-9.873-4.095l.83-.83a.601.601 0 1 0-.85-.85l-.83.83a15.373 15.373 0 0 1-4.092-9.87h1.18a.601.601 0 0 0 0-1.203h-1.18a15.375 15.375 0 0 1 4.095-9.872l.83.83a.601.601 0 1 0 .85-.85l-.83-.83a15.374 15.374 0 0 1 9.87-4.093v1.18a.601.601 0 0 0 1.202 0v-1.18a15.375 15.375 0 0 1 9.873 4.095l-.83.83a.601.601 0 0 0 .85.85l.83-.83a15.372 15.372 0 0 1 4.096 9.873h-1.184a.601.601 0 0 0 0 1.203h1.18a15.374 15.374 0 0 1-4.094 9.867zm-3.23-19.414-7.114 7.115a2.075 2.075 0 1 0-1.579 3.812v6.868a.601.601 0 0 0 1.203 0v-6.868a2.072 2.072 0 0 0 1.226-2.962l7.115-7.113a.602.602 0 1 0-.851-.851zM17 17.871a.87.87 0 1 1 0-1.742.87.87 0 0 1 0 1.742z" fill="#FF5554" fill-rule="nonzero"/>
</svg>
