<svg width="24" height="18" viewBox="0 0 24 18" xmlns="http://www.w3.org/2000/svg">
    <path d="M21.55 0H2.45A2.452 2.452 0 0 0 0 2.45v13.007a2.452 2.452 0 0 0 2.45 2.451h19.1A2.451 2.451 0 0 0 24 15.457V2.45A2.452 2.452 0 0 0 21.55 0zm1.509 2.45v13.007c0 .166-.028.33-.082.488L16.39 9.36l6.63-7.247c.025.111.038.225.039.339zM21.55.942c.348 0 .686.12.955.34l-9.125 9.972a1.834 1.834 0 0 1-2.76 0L1.496 1.282c.269-.22.607-.341.955-.34H21.55zM1.023 15.947a1.499 1.499 0 0 1-.082-.49V2.45c0-.114.014-.228.04-.338l6.63 7.246-6.588 6.588zm1.427 1.02c-.304 0-.601-.092-.852-.264l6.649-6.648 1.68 1.836a2.776 2.776 0 0 0 4.148 0l1.68-1.836 6.648 6.648c-.25.172-.548.264-.852.264H2.45z" fill="#444BFD" fill-rule="nonzero"/>
</svg>
