<svg width="48" height="40" viewBox="0 0 48 40" xmlns="http://www.w3.org/2000/svg">
    <path d="M23.994 0C18.332 0 13.71 4.673 13.71 10.455c0 2.858 1.049 5.525 2.528 8.041L.597 20.73a.687.687 0 0 0-.522.384c-.103.21-.1.459.008.666l9.599 17.87c.143.271.436.416.728.358l37.024-7.863a.694.694 0 0 0 .524-.459.739.739 0 0 0-.117-.703L36.185 15.972a.672.672 0 0 0-.62-.246l-2.572.358c.784-1.795 1.286-3.667 1.286-5.63C34.279 4.674 29.657 0 23.994 0zm0 1.43c4.94 0 8.913 4.035 8.913 9.025 0 5.696-5.066 11.059-8.913 16.239-3.847-5.18-8.913-10.543-8.913-16.24 0-4.989 3.973-9.024 8.913-9.024zm0 4.289c-2.642 0-4.8 2.248-4.8 5.003 0 2.756 2.158 5.004 4.8 5.004s4.8-2.248 4.8-5.004c0-2.755-2.158-5.003-4.8-5.003zm0 1.43c1.902 0 3.428 1.59 3.428 3.573 0 1.983-1.526 3.574-3.428 3.574-1.901 0-3.428-1.591-3.428-3.574 0-1.982 1.527-3.574 3.428-3.574zM35.35 17.2l4.478 5.764-8.1 1.697.493-3.105a.735.735 0 0 0-.15-.558l-1.028-1.363c.423-.652.837-1.314 1.2-1.988l3.107-.447zm-18.298 2.614c1.58 2.407 3.458 4.68 5.142 6.858l-6.963 1.452-4.178-7.461 6-.849zm13.176 1.05.579.76-.536 3.35-3.792.782c1.24-1.578 2.559-3.197 3.75-4.892zm-20.633.022 4.2 7.529-7.714 1.608-4.307-8.02 7.82-1.117zm31.218 3.329 5.249 6.768-9.899 2.1-4.264-6.992 8.914-1.876zm-10.37 2.167 4.263 7.014-10.691 2.256-2.164-3.864a.695.695 0 0 0-.321-.29l-4.821-2.235 6.427-1.34c.095.128.208.252.3.38.13.187.337.298.557.298a.678.678 0 0 0 .558-.298c.19-.264.4-.538.6-.804l5.292-1.117zM14.502 29.71c.076.11.18.195.3.246l5.956 2.77 1.821 3.239-11.955 2.524-3.835-7.17 7.713-1.609z" fill="#FF5554" fill-rule="nonzero"/>
</svg>
