<svg width="26" height="32" viewBox="0 0 26 32" xmlns="http://www.w3.org/2000/svg">
    <g fill="#FF5554" fill-rule="nonzero">
        <path d="m18.813 7.743 1.049-1.05L13.168 0 5.624 7.544l.198.199H0V30.21A1.791 1.791 0 0 0 1.79 32h21.983a1.792 1.792 0 0 0 1.79-1.79V7.743h-6.75zm-5.645-6.26 5.21 5.21-5.256 5.256h-1.609L7.108 7.544l6.06-6.06zM24.514 16.27h-7.47a.526.526 0 1 0 0 1.05h7.469v12.89c0 .41-.332.74-.74.741H1.788a.741.741 0 0 1-.74-.74V17.317h14.13a.525.525 0 1 0 0-1.05H1.049V8.792H6.87l3.158 3.158h-3.49a.524.524 0 1 0 0 1.05h12.484a.524.524 0 0 0 0-1.05h-4.418l3.158-3.158h6.75v7.478z"/>
        <path d="M15.592 6.022a.526.526 0 1 0-.753-.732L11.903 8.31 10.73 7.051a.525.525 0 0 0-.768.716l1.926 2.063 3.704-3.808z"/>
    </g>
</svg>
