<svg width="39" height="48" viewBox="0 0 39 48" xmlns="http://www.w3.org/2000/svg">
    <g fill="#F5F3F1" fill-rule="nonzero">
        <path d="m28.219 11.614 1.573-1.573L19.752 0 8.436 11.316l.298.298H0v33.701A2.687 2.687 0 0 0 2.685 48H35.66a2.688 2.688 0 0 0 2.685-2.685V11.614H28.219zm-8.467-9.388 7.814 7.815-7.884 7.883H17.27l-6.608-6.608 9.09-9.09zM36.77 24.403H25.566a.789.789 0 0 0-.788.787.788.788 0 0 0 .788.788H36.77v19.337c0 .613-.497 1.11-1.11 1.11H2.683c-.614 0-1.11-.497-1.111-1.11V25.976h21.195a.788.788 0 1 0 0-1.574H1.573V13.187h8.733l4.737 4.736H9.808a.786.786 0 1 0 0 1.574h18.726a.787.787 0 0 0 0-1.574h-6.626l4.737-4.736H36.77v11.216z"/>
        <path d="M23.387 9.032a.789.789 0 0 0-.014-1.113.787.787 0 0 0-1.114.016l-4.404 4.529-1.76-1.887a.787.787 0 0 0-1.151 1.074l2.888 3.094 5.555-5.713z"/>
    </g>
</svg>
