<svg width="34" height="22" viewBox="0 0 34 22" xmlns="http://www.w3.org/2000/svg">
    <path d="M9.92 7.95a3.969 3.969 0 0 0 3.953-3.953A3.969 3.969 0 0 0 9.92.043a3.969 3.969 0 0 0-3.954 3.954A3.97 3.97 0 0 0 9.92 7.951zm0-6.848c1.559 0 2.84 1.28 2.84 2.84 0 1.559-1.281 2.84-2.84 2.84-1.56 0-2.84-1.281-2.84-2.84 0-1.56 1.28-2.84 2.84-2.84zm11.136 5.68-8.853 2.56H5.799c-.055 0-.055 0-.111.056-.056 0-.056.056-.056.056-.055 0-.055.055-.055.055s-.056 0-.056.056L.4 17.36c-.168.223-.112.613.166.78.112.056.223.112.279.112.167 0 .334-.112.445-.279l4.065-6.236v9.522c0 .334.222.557.557.557h6.292c.334 0 .557-.223.557-.557v-10.97l8.519-2.45c.334-.055.5-.39.445-.668-.111-.278-.39-.445-.668-.39zm-9.41 13.92H6.468V10.456h5.178v10.246zm22.05-7.072c0 .334-.223.557-.557.557h-7.183v2.06l3.397 4.064c.222.223.167.613-.056.78-.111.111-.223.111-.334.111a.507.507 0 0 1-.445-.222l-2.562-3.063v2.506c0 .334-.223.557-.557.557-.334 0-.557-.223-.557-.557v-2.506l-2.561 3.063c-.112.111-.279.222-.446.222-.111 0-.278-.055-.334-.111-.223-.223-.279-.557-.056-.78l3.397-4.064v-2.06h-7.183c-.334 0-.557-.223-.557-.557v-3.452l1.114-.334v3.229h14.366V1.714H18.216v4.733l-1.114.334V1.213c0-.334.223-.557.557-.557h15.48c.334-.056.557.223.557.501V13.63z" fill="#FF5554" fill-rule="nonzero"/>
</svg>
