<svg width="24" height="22" viewBox="0 0 24 22" xmlns="http://www.w3.org/2000/svg">
    <path d="M17.385 21.969c-.99-.001-1.967-.236-2.85-.686a38.319 38.319 0 0 1-7.248-4.837 38.274 38.274 0 0 1-6.022-6.3 6.226 6.226 0 0 1 .201-7.775L2.778.807A2.258 2.258 0 0 1 6.362.97L8.37 3.86a1.927 1.927 0 0 1-.107 2.332L6.662 8.1a1.193 1.193 0 0 0 .02 1.563 35.737 35.737 0 0 0 3.488 3.347 35.701 35.701 0 0 0 3.903 2.854 1.192 1.192 0 0 0 1.541-.252l1.602-1.907a1.926 1.926 0 0 1 2.278-.51l3.194 1.474a2.257 2.257 0 0 1 .783 3.501l-1.312 1.565a6.218 6.218 0 0 1-4.773 2.234zM4.506 1.019a1.23 1.23 0 0 0-.947.443L2.247 3.027a5.21 5.21 0 0 0-.167 6.507 37.317 37.317 0 0 0 5.862 6.13 37.327 37.327 0 0 0 7.055 4.71 5.213 5.213 0 0 0 6.38-1.295l1.312-1.564a1.237 1.237 0 0 0-.429-1.92l-3.194-1.474a.903.903 0 0 0-1.069.24l-1.602 1.907a2.214 2.214 0 0 1-2.867.459 36.623 36.623 0 0 1-4.014-2.936 36.734 36.734 0 0 1-3.589-3.443 2.216 2.216 0 0 1-.045-2.904l1.6-1.908a.903.903 0 0 0 .05-1.095l-2.006-2.89a1.229 1.229 0 0 0-1.018-.531z" fill="#444BFD" fill-rule="nonzero"/>
</svg>
